<svg width="64" height="42" viewBox="0 0 64 42" fill="none" xmlns="http://www.w3.org/2000/svg">
<path d="M0.533333 9.26575C0.533333 4.84748 4.11506 1.26576 8.53333 1.26576H55.4667C59.8849 1.26576 63.4667 4.84748 63.4667 9.26576V32.7324C63.4667 37.1507 59.8849 40.7324 55.4667 40.7324H8.53333C4.11506 40.7324 0.533333 37.1507 0.533333 32.7324V9.26575Z" fill="white" stroke="#D3D3D3" stroke-width="1.06667"/>
<path d="M9.80482 23.5314C9.27187 24.0126 8.57917 24.2227 7.48357 24.2227H7.02799V18.4713H7.48357C8.57917 18.4713 9.24442 18.6674 9.80482 19.1746C10.3919 19.6974 10.744 20.506 10.744 21.3393C10.744 22.1747 10.3919 23.0093 9.80482 23.5314ZM7.82334 16.9973H5.33301V25.6953H7.80989C9.12697 25.6953 10.0785 25.3848 10.9134 24.6906C11.9055 23.8693 12.492 22.632 12.492 21.3526C12.492 18.7854 10.5744 16.9973 7.82334 16.9973Z" fill="#231F20"/>
<path d="M13.2734 25.6953H14.9695V16.9973H13.2734V25.6953Z" fill="#231F20"/>
<path d="M19.1177 20.3356C18.0996 19.9583 17.8007 19.7103 17.8007 19.2403C17.8007 18.6923 18.3334 18.2763 19.0645 18.2763C19.5731 18.2763 19.9905 18.485 20.4326 18.981L21.3205 17.8183C20.5907 17.1803 19.718 16.8543 18.7648 16.8543C17.2257 16.8543 16.0519 17.9229 16.0519 19.3464C16.0519 20.5443 16.5986 21.1576 18.1921 21.7309C18.856 21.9656 19.1938 22.1216 19.3645 22.227C19.7031 22.4476 19.8733 22.7609 19.8733 23.1263C19.8733 23.831 19.3129 24.353 18.5557 24.353C17.7471 24.353 17.0951 23.949 16.7046 23.1937L15.6084 24.2483C16.39 25.3956 17.3286 25.9043 18.6196 25.9043C20.3827 25.9043 21.6196 24.7324 21.6196 23.049C21.6196 21.6663 21.048 21.041 19.1177 20.3356Z" fill="#231F20"/>
<path d="M22.1543 21.3526C22.1543 23.9086 24.1616 25.8906 26.745 25.8906C27.475 25.8906 28.1002 25.7473 28.8716 25.3848V23.3873C28.1932 24.066 27.5924 24.3393 26.8235 24.3393C25.1148 24.3393 23.9023 23.1007 23.9023 21.3393C23.9023 19.6699 25.1537 18.3526 26.745 18.3526C27.5537 18.3526 28.1669 18.6414 28.8716 19.3313V17.3352C28.1271 16.9573 27.5148 16.8013 26.7848 16.8013C24.2148 16.8013 22.1543 18.8233 22.1543 21.3526Z" fill="#231F20"/>
<path d="M42.3233 22.8405L40.0032 16.9985H38.1504L41.8411 25.9199H42.7542L46.5117 16.9985H44.6723L42.3233 22.8405Z" fill="#231F20"/>
<path d="M47.2783 25.6953H52.0899V24.2227H48.9741V21.8747H51.9744V20.4013H48.9741V18.4713H52.0899V16.9973H47.2783V25.6953Z" fill="#231F20"/>
<path d="M55.4042 21.0021H54.9081V18.3674H55.4303C56.4875 18.3674 57.0619 18.81 57.0619 19.6566C57.0619 20.5313 56.4875 21.0021 55.4042 21.0021ZM58.8082 19.5653C58.8082 17.9367 57.6857 16.9973 55.7292 16.9973H53.2139V25.6953H54.9081V22.2014H55.1298L57.478 25.6953H59.564L56.8256 22.0306C58.104 21.7707 58.8082 20.8974 58.8082 19.5653Z" fill="#231F20"/>
<path d="M59.8371 17.5586H59.8055V17.3584H59.8387C59.929 17.3584 59.9765 17.3907 59.9765 17.4567C59.9765 17.5249 59.9285 17.5586 59.8371 17.5586ZM60.1598 17.4546C60.1598 17.3015 60.0539 17.2179 59.869 17.2179H59.623V17.9844H59.8055V17.6872L60.0201 17.9844H60.2441L59.9919 17.6682C60.0995 17.6394 60.1598 17.5607 60.1598 17.4546Z" fill="#231F20"/>
<path d="M59.9026 18.1501C59.6095 18.1501 59.3699 17.9056 59.3699 17.6014C59.3699 17.2957 59.6073 17.0519 59.9026 17.0519C60.1946 17.0519 60.432 17.3014 60.432 17.6014C60.432 17.9028 60.1946 18.1501 59.9026 18.1501ZM59.9053 16.9318C59.5332 16.9318 59.2373 17.229 59.2373 17.6C59.2373 17.9716 59.5365 18.2695 59.9053 18.2695C60.2681 18.2695 60.5657 17.9681 60.5657 17.6C60.5657 17.2339 60.2681 16.9318 59.9053 16.9318Z" fill="#231F20"/>
<path d="M38.6332 21.3379C38.6332 23.8813 36.5715 25.9434 34.0277 25.9434C31.4838 25.9434 29.4219 23.8813 29.4219 21.3379C29.4219 18.7939 31.4838 16.7318 34.0277 16.7318C36.5715 16.7318 38.6332 18.7939 38.6332 21.3379Z" fill="#F36719"/>
</svg>
