<svg width="16" height="16" viewBox="0 0 16 16" fill="none" xmlns="http://www.w3.org/2000/svg">
<g id="image-files">
<path id="Vector" d="M3.33317 14.6693H12.6665C13.0347 14.6693 13.3332 14.3708 13.3332 14.0026V4.66927H9.99984V1.33594H3.33317C2.96498 1.33594 2.6665 1.63441 2.6665 2.0026V14.0026C2.6665 14.3708 2.96498 14.6693 3.33317 14.6693Z" stroke="#F1BB00" stroke-linecap="round" stroke-linejoin="round"/>
<path id="Vector_2" d="M10 1.33594L13.3333 4.66927" stroke="#F1BB00" stroke-linecap="round" stroke-linejoin="round"/>
<path id="Vector_3" d="M5.99984 7.0026C6.73622 7.0026 7.33317 6.40565 7.33317 5.66927C7.33317 4.93289 6.73622 4.33594 5.99984 4.33594C5.26346 4.33594 4.6665 4.93289 4.6665 5.66927C4.6665 6.40565 5.26346 7.0026 5.99984 7.0026Z" stroke="#F1BB00" stroke-linecap="round" stroke-linejoin="round"/>
<path id="Vector_4" d="M5 9.33333V12.3333H11V7L7.8298 10.5L5 9.33333Z" stroke="#F1BB00" stroke-linecap="round" stroke-linejoin="round"/>
</g>
</svg>
