<svg width="12" height="13" viewBox="0 0 12 13" fill="none" xmlns="http://www.w3.org/2000/svg">
<rect x="0.333333" y="0.833333" width="11.3333" height="11.3333" rx="5.66667" stroke="#758179" stroke-width="0.666667"/>
<path d="M6.20997 8.54045C6.20197 8.68445 6.12997 8.75645 5.99397 8.75645C5.85797 8.75645 5.78197 8.68445 5.76597 8.54045L5.47797 3.05645V2.99645C5.47797 2.87645 5.52597 2.77645 5.62197 2.69645C5.71797 2.60845 5.83797 2.56445 5.98197 2.56445C6.12597 2.56445 6.24597 2.60045 6.34197 2.67245C6.43797 2.74445 6.48597 2.85245 6.48597 2.99645V3.05645L6.20997 8.54045ZM5.41797 9.89645C5.41797 9.73645 5.47397 9.60445 5.58597 9.50045C5.69797 9.38845 5.83397 9.33245 5.99397 9.33245C6.15397 9.33245 6.28997 9.38445 6.40197 9.48845C6.52197 9.59245 6.58197 9.72445 6.58197 9.88445C6.58197 10.0445 6.52197 10.1765 6.40197 10.2805C6.28997 10.3845 6.15397 10.4365 5.99397 10.4365C5.83397 10.4365 5.69797 10.3845 5.58597 10.2805C5.47397 10.1765 5.41797 10.0485 5.41797 9.89645Z" fill="#758179"/>
</svg>
