<svg width="60" height="38" viewBox="0 0 60 38" fill="none" xmlns="http://www.w3.org/2000/svg">
<rect x="0.5" y="0.5" width="59" height="37" rx="7.5" fill="white" stroke="#D3D3D3"/>
<path d="M48 27.522C48 30.5171 45.5611 32.956 42.566 32.956H13V11.434C13 8.43887 15.4389 6 18.434 6H48V27.522Z" fill="white"/>
<path d="M38.373 22.003H40.6194C40.6836 22.003 40.8333 21.9816 40.8975 21.9816C41.3254 21.896 41.6891 21.511 41.6891 20.9761C41.6891 20.4627 41.3254 20.0776 40.8975 19.9706C40.8333 19.9492 40.705 19.9492 40.6194 19.9492H38.373V22.003Z" fill="url(#paint0_linear_1178_21087)"/>
<path d="M40.3623 7.82031C38.2229 7.82031 36.4687 9.5532 36.4687 11.714V15.7574H41.9668C42.0952 15.7574 42.2449 15.7574 42.3519 15.7787C43.5927 15.8429 44.5127 16.4847 44.5127 17.5972C44.5127 18.4743 43.8923 19.2231 42.737 19.3729V19.4157C43.9992 19.5012 44.9619 20.2072 44.9619 21.2983C44.9619 22.475 43.8923 23.2451 42.4803 23.2451H36.4473V31.1608H42.1594C44.2987 31.1608 46.053 29.4279 46.053 27.2671V7.82031H40.3623Z" fill="url(#paint1_linear_1178_21087)"/>
<path d="M41.4109 17.8554C41.4109 17.3419 41.0473 16.9996 40.6194 16.9355C40.5766 16.9355 40.4696 16.9141 40.4054 16.9141H38.373V18.7967H40.4054C40.4696 18.7967 40.598 18.7967 40.6194 18.7753C41.0473 18.7111 41.4109 18.3688 41.4109 17.8554Z" fill="url(#paint2_linear_1178_21087)"/>
<path d="M18.8408 7.82031C16.7015 7.82031 14.9472 9.5532 14.9472 11.714V21.3197C16.0383 21.8545 17.1721 22.1968 18.306 22.1968C19.6538 22.1968 20.3812 21.3839 20.3812 20.2714V15.736H23.7186V20.25C23.7186 22.0043 22.6275 23.4377 18.9264 23.4377C16.6801 23.4377 14.9258 22.9456 14.9258 22.9456V31.1394H20.6379C22.7772 31.1394 24.5315 29.4065 24.5315 27.2457V7.82031H18.8408Z" fill="url(#paint3_linear_1178_21087)"/>
<path d="M29.6017 7.82031C27.4623 7.82031 25.708 9.5532 25.708 11.714V16.8056C26.6921 15.9713 28.4036 15.4364 31.1634 15.5648C32.6395 15.629 34.2227 16.0355 34.2227 16.0355V17.6828C33.4311 17.2763 32.4898 16.9126 31.2704 16.827C29.1738 16.6773 27.9116 17.7042 27.9116 19.5012C27.9116 21.3197 29.1738 22.3466 31.2704 22.1754C32.4898 22.0899 33.4311 21.7048 34.2227 21.3197V22.967C34.2227 22.967 32.6609 23.3735 31.1634 23.4377C28.4036 23.566 26.6921 23.0312 25.708 22.1968V31.1822H31.4201C33.5595 31.1822 35.3138 29.4493 35.3138 27.2885V7.82031H29.6017Z" fill="url(#paint4_linear_1178_21087)"/>
<defs>
<linearGradient id="paint0_linear_1178_21087" x1="36.4654" y1="20.9787" x2="46.0792" y2="20.9787" gradientUnits="userSpaceOnUse">
<stop stop-color="#007940"/>
<stop offset="0.2285" stop-color="#00873F"/>
<stop offset="0.7433" stop-color="#40A737"/>
<stop offset="1" stop-color="#5CB531"/>
</linearGradient>
<linearGradient id="paint1_linear_1178_21087" x1="36.4648" y1="19.4812" x2="46.0793" y2="19.4812" gradientUnits="userSpaceOnUse">
<stop stop-color="#007940"/>
<stop offset="0.2285" stop-color="#00873F"/>
<stop offset="0.7433" stop-color="#40A737"/>
<stop offset="1" stop-color="#5CB531"/>
</linearGradient>
<linearGradient id="paint2_linear_1178_21087" x1="36.4652" y1="17.8527" x2="46.0793" y2="17.8527" gradientUnits="userSpaceOnUse">
<stop stop-color="#007940"/>
<stop offset="0.2285" stop-color="#00873F"/>
<stop offset="0.7433" stop-color="#40A737"/>
<stop offset="1" stop-color="#5CB531"/>
</linearGradient>
<linearGradient id="paint3_linear_1178_21087" x1="14.9426" y1="19.4812" x2="24.7052" y2="19.4812" gradientUnits="userSpaceOnUse">
<stop stop-color="#1F286F"/>
<stop offset="0.4751" stop-color="#004E94"/>
<stop offset="0.8261" stop-color="#0066B1"/>
<stop offset="1" stop-color="#006FBC"/>
</linearGradient>
<linearGradient id="paint4_linear_1178_21087" x1="25.6527" y1="19.4812" x2="35.1344" y2="19.4812" gradientUnits="userSpaceOnUse">
<stop stop-color="#6C2C2F"/>
<stop offset="0.1735" stop-color="#882730"/>
<stop offset="0.5731" stop-color="#BE1833"/>
<stop offset="0.8585" stop-color="#DC0436"/>
<stop offset="1" stop-color="#E60039"/>
</linearGradient>
</defs>
</svg>
