<svg width="64" height="42" viewBox="0 0 64 42" fill="none" xmlns="http://www.w3.org/2000/svg">
<rect x="0.533333" y="1.26576" width="62.9333" height="39.4667" rx="8" fill="white" stroke="#D3D3D3" stroke-width="1.06667"/>
<path d="M37.2816 11.7031H27.3184V29.6052H37.2816V11.7031Z" fill="#FF5F00"/>
<path d="M27.9509 20.6548C27.9509 17.1756 29.564 13.8545 32.2841 11.7037C27.35 7.81332 20.1702 8.6673 16.2798 13.6331C12.421 18.5672 13.275 25.7154 18.2408 29.6058C22.3842 32.8636 28.1723 32.8636 32.3158 29.6058C29.564 27.455 27.9509 24.134 27.9509 20.6548Z" fill="#EB001B"/>
<path d="M50.7236 20.6548C50.7236 26.949 45.6313 32.0413 39.3371 32.0413C36.7751 32.0413 34.3081 31.1873 32.3154 29.6058C37.2496 25.7154 38.1036 18.5672 34.2132 13.6015C33.6439 12.9056 33.0113 12.2414 32.3154 11.7037C37.2496 7.81332 44.4294 8.6673 48.2882 13.6331C49.8696 15.6257 50.7236 18.0928 50.7236 20.6548Z" fill="#F79E1B"/>
</svg>
