<svg width="25" height="25" viewBox="0 0 25 25" fill="none" xmlns="http://www.w3.org/2000/svg">
<g id="every-user">
<path id="Vector" d="M7.5 17.5C8.88071 17.5 10 16.3807 10 15C10 13.6193 8.88071 12.5 7.5 12.5C6.11929 12.5 5 13.6193 5 15C5 16.3807 6.11929 17.5 7.5 17.5Z" stroke="#758179" stroke-width="1.2" stroke-linecap="round" stroke-linejoin="round"/>
<path id="Vector_2" d="M17.5 17.5C18.8807 17.5 20 16.3807 20 15C20 13.6193 18.8807 12.5 17.5 12.5C16.1193 12.5 15 13.6193 15 15C15 16.3807 16.1193 17.5 17.5 17.5Z" stroke="#758179" stroke-width="1.2" stroke-linecap="round" stroke-linejoin="round"/>
<path id="Vector_3" d="M12.5 7.5C13.8807 7.5 15 6.38071 15 5C15 3.61929 13.8807 2.5 12.5 2.5C11.1193 2.5 10 3.61929 10 5C10 6.38071 11.1193 7.5 12.5 7.5Z" stroke="#758179" stroke-width="1.2" stroke-linecap="round" stroke-linejoin="round"/>
<path id="Vector_4" d="M12.5 22.5C12.5 19.7386 10.2614 17.5 7.5 17.5C4.73857 17.5 2.5 19.7386 2.5 22.5" stroke="#758179" stroke-width="1.2" stroke-linecap="round" stroke-linejoin="round"/>
<path id="Vector_5" d="M22.5 22.5C22.5 19.7386 20.2614 17.5 17.5 17.5C14.7386 17.5 12.5 19.7386 12.5 22.5" stroke="#758179" stroke-width="1.2" stroke-linecap="round" stroke-linejoin="round"/>
<path id="Vector_6" d="M17.5 12.5C17.5 9.7386 15.2614 7.5 12.5 7.5C9.7386 7.5 7.5 9.7386 7.5 12.5" stroke="#758179" stroke-width="1.2" stroke-linecap="round" stroke-linejoin="round"/>
</g>
</svg>
