<svg width="16" height="16" viewBox="0 0 16 16" fill="none" xmlns="http://www.w3.org/2000/svg">
<g id="file-pdf-one" clip-path="url(#clip0_1178_23997)">
<path id="Vector" d="M3.3335 12.6641V14.6641H12.6668V12.6641" stroke="#F1BB00" stroke-linecap="round" stroke-linejoin="round"/>
<path id="Vector_2" d="M12.6668 6.66927V4.66927L10.0002 1.33594H3.3335V6.66927" stroke="#F1BB00" stroke-linecap="round" stroke-linejoin="round"/>
<path id="Vector_3" d="M9.3335 1.33594V4.66927H12.6668" stroke="#F1BB00" stroke-linecap="round" stroke-linejoin="round"/>
<path id="Vector_4" d="M14.0002 6.66406H2.00016C1.63197 6.66406 1.3335 6.96254 1.3335 7.33073V11.9974C1.3335 12.3656 1.63197 12.6641 2.00016 12.6641H14.0002C14.3684 12.6641 14.6668 12.3656 14.6668 11.9974V7.33073C14.6668 6.96254 14.3684 6.66406 14.0002 6.66406Z" stroke="#F1BB00" stroke-linejoin="round"/>
<path id="Vector_5" d="M7 8.33594V11.0026" stroke="#F1BB00" stroke-linecap="round"/>
<path id="Vector_6" d="M3.3335 8.33594V11.0026" stroke="#F1BB00" stroke-linecap="round"/>
<path id="Vector_7" d="M10.6665 11.0026V8.33594H12.3332" stroke="#F1BB00" stroke-linecap="round" stroke-linejoin="round"/>
<path id="Vector_8" d="M10.6665 10H12.3332" stroke="#F1BB00" stroke-linecap="round" stroke-linejoin="round"/>
<path id="Vector_9" d="M3.3335 8.33594H4.50016C4.9604 8.33594 5.3335 8.70904 5.3335 9.16927C5.3335 9.6295 4.9604 10.0026 4.50016 10.0026H3.3335" stroke="#F1BB00" stroke-linecap="round" stroke-linejoin="round"/>
<path id="Vector_10" d="M7 8.33594H7.66667C8.40303 8.33594 9 8.9329 9 9.66927C9 10.4056 8.40303 11.0026 7.66667 11.0026H7" stroke="#F1BB00" stroke-linecap="round" stroke-linejoin="round"/>
<path id="Vector_11" d="M5.3335 4H6.66683" stroke="#F1BB00" stroke-linecap="round"/>
</g>
<defs>
<clipPath id="clip0_1178_23997">
<rect width="16" height="16" fill="white"/>
</clipPath>
</defs>
</svg>
