<svg width="64" height="42" viewBox="0 0 64 42" fill="none" xmlns="http://www.w3.org/2000/svg">
<rect x="0.533333" y="1.26576" width="62.9333" height="39.4667" rx="8" fill="white" stroke="#D3D3D3" stroke-width="1.06667"/>
<path d="M26.2045 14.8447L20.4789 28.2565H16.7434L13.9258 17.5533C13.7547 16.894 13.606 16.6525 13.0857 16.3748C12.2364 15.9224 10.8337 15.4979 9.59961 15.2345L9.68343 14.8447H15.6965C16.463 14.8447 17.152 15.3456 17.326 16.2122L18.8141 23.9729L22.4918 14.8445L26.2045 14.8447ZM40.841 23.8777C40.856 20.3379 35.8554 20.1429 35.8898 18.5616C35.9005 18.0804 36.3672 17.5687 37.3888 17.4381C37.8952 17.373 39.2903 17.3234 40.8727 18.0383L41.4933 15.1942C40.6431 14.8912 39.549 14.5996 38.1878 14.5996C34.6949 14.5996 32.2367 16.4226 32.216 19.033C32.1935 20.9638 33.9706 22.0412 35.3094 22.6828C36.6868 23.3398 37.149 23.7621 37.1437 24.3498C37.1339 25.2494 36.0452 25.6466 35.0277 25.6622C33.2515 25.6891 32.2208 25.1904 31.3992 24.8153L30.7587 27.7536C31.5844 28.1255 33.1084 28.45 34.6885 28.4663C38.401 28.4663 40.8296 26.6659 40.841 23.8777ZM50.0646 28.2565H53.3329L50.48 14.8447H47.4634C46.785 14.8447 46.2129 15.2325 45.9596 15.8287L40.6567 28.2565H44.3674L45.1041 26.2533H49.638L50.0646 28.2565ZM46.1215 23.5044L47.9816 18.4688L49.0521 23.5044H46.1215ZM31.2536 14.8447L28.3315 28.2565H24.7978L27.7211 14.8447H31.2536Z" fill="#1434CB"/>
</svg>
